<svg xmlns="http://www.w3.org/2000/svg" viewBox="0 0 206.09 54.98">
  <defs>
    <style>
      .cls-1{fill:var(--light-grey)}
    </style>
  </defs>
  <g id="Layer_2" data-name="Layer 2">
    <g id="Layer_1-2" data-name="Layer 1">
      <path class="cls-1" d="M0 34.8a24 24 0 011.16-7.52 18.57 18.57 0 013.41-6.19 18.15 18.15 0 015.31-4.32 16.76 16.76 0 016.85-1.93v6.82A8.57 8.57 0 0011.11 26 16.55 16.55 0 009 34.59a21.75 21.75 0 00.53 4.89 15.07 15.07 0 001.51 4 10.23 10.23 0 002.42 3A6.59 6.59 0 0016.73 48v7a16.56 16.56 0 01-7-1.86 16.84 16.84 0 01-5.23-4.45 19.43 19.43 0 01-3.34-6.29A24.62 24.62 0 010 34.8zm27.49-9.56a10.71 10.71 0 00-2.92-2.35 11.26 11.26 0 00-4.95-1.3v-6.75a16.23 16.23 0 016.64 1.65 16.12 16.12 0 015 4.18zM19.62 48a11.73 11.73 0 004.32-1.23 22.84 22.84 0 003.41-2.21l3.17 4.57a16.6 16.6 0 01-4.72 4.18 14 14 0 01-6.18 1.65zM50.55 36.56c0 1.64.08 3.18.22 4.61a12.42 12.42 0 00.91 3.76 6 6 0 002.11 2.6 6.36 6.36 0 003.73 1 17.13 17.13 0 002.6-.29 14.74 14.74 0 003.23-.91v5.2a27.14 27.14 0 01-4 1.73 13.06 13.06 0 01-4.25.73 13.26 13.26 0 01-3-.31 9 9 0 01-2.49-1 16.69 16.69 0 01-2.22-1.51 24.11 24.11 0 01-2.11-1.9 9 9 0 01-1.9-2.77 14.59 14.59 0 01-1-3.31 21.38 21.38 0 01-.38-3.48V15h8.57zM74.81 15v39.63h-7.66l-.92-4.08V15zM98.09 42.61a9 9 0 00.63 3.73 4.64 4.64 0 001.79 2 6.51 6.51 0 002.6.87 24.7 24.7 0 003.06.18v5.2q-.92.15-1.83.21c-.51 0-1.13.08-1.86.11h-2.14c-.71 0-1.42 0-2.15-.07a13.77 13.77 0 01-1.86-.21 5.91 5.91 0 01-3.73-2.07 11.47 11.47 0 01-2-3.66 17.2 17.2 0 01-.85-3.9c-.11-1.27-.17-2.25-.17-3V20.74h-5.2V15h5.2V3.73h8.51V15h6.32v5.76h-6.32zM127.48 42.61a9 9 0 00.63 3.73 4.64 4.64 0 001.79 2 6.51 6.51 0 002.6.87 24.7 24.7 0 003.06.18v5.2q-.92.15-1.83.21c-.51 0-1.13.08-1.86.11h-2.14c-.71 0-1.42 0-2.15-.07a13.77 13.77 0 01-1.86-.21 5.91 5.91 0 01-3.72-2 11.47 11.47 0 01-2-3.63 17.2 17.2 0 01-.85-3.9c-.11-1.27-.17-2.25-.17-3V20.74h-5.2V15H119V3.73h8.51V15h6.32v5.76h-6.32zM154 42.54a9.16 9.16 0 00.64 3.76 4.44 4.44 0 001.76 2 6.76 6.76 0 002.56.88 21.81 21.81 0 003.13.21v5.2a18.71 18.71 0 01-1.9.21c-.51 0-1.12.08-1.83.11s-1.4 0-2.11 0-1.4 0-2.1-.07a16 16 0 01-1.9-.21 6.23 6.23 0 01-3.73-2.11 11.64 11.64 0 01-2-3.62 16.29 16.29 0 01-.88-3.9c-.12-1.27-.17-2.25-.17-3V0H154zM189.21 48a14.15 14.15 0 001.93-.17 13.46 13.46 0 002.47-.64 17.89 17.89 0 002.6-1.16 9.89 9.89 0 002.28-1.68l3.1 4.71a15.63 15.63 0 01-5.42 4.36 18.36 18.36 0 01-7.87 1.47 16.8 16.8 0 01-7.25-1.58 17.13 17.13 0 01-5.76-4.31 21.17 21.17 0 01-3.8-6.4 21.7 21.7 0 01-1.4-7.88 22 22 0 011.3-7.59 20.67 20.67 0 013.55-6.29 18.69 18.69 0 015.24-4.4 14.91 14.91 0 016.43-1.9v6.76a8.33 8.33 0 00-4.29 2.11 12.17 12.17 0 00-2.64 3.7 17.31 17.31 0 00-1.33 4.25 21.68 21.68 0 00-.39 3.73 18.43 18.43 0 00.67 5.09 11.08 11.08 0 002.07 4.08 10.19 10.19 0 003.48 2.74 11.34 11.34 0 005.03 1zm.28-33.39a17.37 17.37 0 016.86 2 18 18 0 015.24 4.39 19.62 19.62 0 013.34 6.12 22.44 22.44 0 011.16 7.17 27.38 27.38 0 01-.21 3.38h-24.12V31.5H198a10.42 10.42 0 00-2.36-6.64 11.16 11.16 0 00-2.7-2.43 8 8 0 00-3.45-1.2z"/>
    </g>
  </g>
</svg>
