<svg width="168" height="56" xmlns="http://www.w3.org/2000/svg" fill-rule="evenodd" clip-rule="evenodd" stroke-linejoin="round" stroke-miterlimit="2"><g fill-rule="nonzero">
<path d="M6.645 36.141c0 9.211 3.281 13.816 9.843 13.816 1.36 0 2.637-.158 3.832-.475 1.196-.316 2.116-.673 2.76-1.072a51.193 51.193 0 011.811-1.072c.562-.317.961-.475 1.195-.475.562 0 .844.27.844.809 0 .516-.305 1.178-.914 1.986-.61.809-1.43 1.623-2.461 2.444-1.032.82-2.362 1.523-3.991 2.109a14.889 14.889 0 01-5.08.879c-4.922 0-8.566-1.483-10.933-4.447C1.184 47.678 0 43.418 0 37.863c0-3.914.527-6.668 1.582-8.261.539-.821 1.359-1.588 2.461-2.303 1.102-.715 2.039-1.072 2.812-1.072.563 0 .844.328.844.984 0 .023-.176 1.043-.527 3.059a34.095 34.095 0 00-.527 5.871zm18.14-17.192c.703.539 1.055 1.09 1.055 1.653 0 .586-.469 1.294-1.406 2.127-.938.832-1.805 1.248-2.602 1.248-.68 0-1.477-.211-2.391-.633-1.968-.914-3.761-1.371-5.379-1.371-3.562 0-6.996 1.148-10.3 3.445-1.008.68-1.617 1.02-1.828 1.02-.329 0-.493-.2-.493-.598 0-.281.129-.668.387-1.16.258-.492.492-.867.703-1.125 1.781-2.274 3.75-3.95 5.906-5.028 2.157-1.078 4.887-1.617 8.192-1.617 1.476 0 2.988.176 4.535.528 1.547.351 2.754.855 3.621 1.511z" fill="url(#_Linear1)"/><path d="M44.578 55.09c-1.969 0-3.662-.252-5.08-.756-1.418-.504-2.572-1.336-3.463-2.496-.89-1.16-1.547-2.666-1.969-4.518-.421-1.851-.632-4.136-.632-6.855v-19.09c0-.633.17-1.225.509-1.775a5.44 5.44 0 011.266-1.424 6.064 6.064 0 011.652-.932c.598-.223 1.155-.334 1.67-.334.821 0 1.231.504 1.231 1.512v21.41l.14 2.707c.094 1.336.282 2.479.563 3.428.281.949.703 1.722 1.265 2.32.563.598 1.272 1.037 2.127 1.318.856.282 1.893.422 3.112.422 1.945 0 3.715-.457 5.308-1.371.446-.258.739-.386.879-.386.211 0 .358.082.44.246.082.164.123.515.123 1.054 0 .985-.34 1.823-1.02 2.514-.679.691-1.5 1.26-2.461 1.705-.961.445-1.963.773-3.006.984-1.043.211-1.927.317-2.654.317zM61.84 18.422v31.5c0 1.265-.58 2.32-1.74 3.164-1.161.844-2.28 1.266-3.358 1.266-.82 0-1.23-.504-1.23-1.512v-31.5c0-1.219.586-2.262 1.758-3.129 1.171-.867 2.285-1.301 3.339-1.301.821 0 1.231.504 1.231 1.512z" fill="url(#_Linear2)"/><path d="M80.121 26.789v12.305c0 2.015.117 3.72.352 5.115.234 1.395.58 2.525 1.037 3.393.457.867 1.031 1.488 1.722 1.863.692.375 1.506.562 2.444.562 1.101 0 2.021-.134 2.76-.404.738-.269 1.353-.562 1.845-.879.492-.316.903-.609 1.231-.879.328-.269.656-.404.984-.404.305 0 .527.088.668.264.141.175.211.404.211.685 0 .399-.158.967-.475 1.705-.316.739-.849 1.477-1.599 2.215-.75.738-1.74 1.383-2.971 1.934-1.23.55-2.771.826-4.623.826-1.805 0-3.334-.258-4.588-.774-1.254-.515-2.279-1.353-3.076-2.513-.797-1.16-1.371-2.672-1.723-4.535-.351-1.864-.527-4.155-.527-6.873V26.789c0-.516.111-.908.334-1.178a1.86 1.86 0 01.844-.58c.34-.117.691-.176 1.054-.176h.967c.422 0 .826.018 1.213.053.387.035.721.117 1.002.246s.504.323.668.58c.164.258.246.61.246 1.055zm-8.156-7.629v2.004c0 .586-.129 1.043-.387 1.371-.258.328-.75.492-1.476.492h-1.653c-.82 0-1.23-.257-1.23-.773 0-.633.51-1.5 1.529-2.602C69.768 18.551 70.582 18 71.191 18c.516 0 .774.387.774 1.16zm8.156-7.558v4.535c0 .726.164 1.218.492 1.476.328.258.785.387 1.371.387h9.422c.821 0 1.231.27 1.231.809 0 .562-.393 1.265-1.178 2.109-.785.844-1.564 1.406-2.338 1.687-.75.282-2.098.422-4.043.422h-9.422c-.586 0-1.043-.129-1.371-.386-.328-.258-.492-.75-.492-1.477V14.52c0-1.29.574-2.35 1.723-3.182 1.148-.832 2.273-1.248 3.375-1.248.82 0 1.23.504 1.23 1.512z" fill="url(#_Linear3)"/><path d="M108.387 26.789v12.305c0 2.015.117 3.72.351 5.115.235 1.395.58 2.525 1.037 3.393.457.867 1.032 1.488 1.723 1.863.691.375 1.506.562 2.443.562 1.102 0 2.022-.134 2.76-.404.738-.269 1.354-.562 1.846-.879a13.08 13.08 0 001.23-.879c.328-.269.657-.404.985-.404.304 0 .527.088.668.264.14.175.211.404.211.685 0 .399-.159.967-.475 1.705-.316.739-.85 1.477-1.6 2.215-.75.738-1.74 1.383-2.97 1.934-1.231.55-2.772.826-4.623.826-1.805 0-3.334-.258-4.588-.774-1.254-.515-2.28-1.353-3.076-2.513-.797-1.16-1.372-2.672-1.723-4.535-.352-1.864-.527-4.155-.527-6.873V26.789c0-.516.111-.908.334-1.178.222-.269.503-.463.843-.58.34-.117.692-.176 1.055-.176h.967c.422 0 .826.018 1.213.053.386.035.72.117 1.002.246.281.129.504.323.668.58.164.258.246.61.246 1.055zm-8.157-7.629v2.004c0 .586-.128 1.043-.386 1.371-.258.328-.75.492-1.477.492h-1.652c-.82 0-1.231-.257-1.231-.773 0-.633.51-1.5 1.53-2.602C98.033 18.551 98.848 18 99.457 18c.516 0 .773.387.773 1.16zm8.157-7.558v4.535c0 .726.164 1.218.492 1.476.328.258.785.387 1.371.387h9.422c.82 0 1.23.27 1.23.809 0 .562-.392 1.265-1.177 2.109-.786.844-1.565 1.406-2.338 1.687-.75.282-2.098.422-4.043.422h-9.422c-.586 0-1.043-.129-1.371-.386-.328-.258-.492-.75-.492-1.477V14.52c0-1.29.574-2.35 1.722-3.182 1.149-.832 2.274-1.248 3.375-1.248.821 0 1.231.504 1.231 1.512z" fill="url(#_Linear4)"/><path d="M127.02 52.84V4.395c0-1.266.574-2.315 1.722-3.147C129.891.416 131.016 0 132.117 0c.821 0 1.231.504 1.231 1.512v48.445c0 1.289-.575 2.344-1.723 3.164-1.148.82-2.273 1.231-3.375 1.231-.82 0-1.23-.504-1.23-1.512z" fill="url(#_Linear5)"/><path d="M147.762 31.605c0 .657.205 1.073.615 1.249.41.175 1.014.263 1.81.263 2.04 0 3.786-.176 5.239-.527 1.453-.352 2.566-.844 3.34-1.477.773-.633 1.33-1.3 1.67-2.004a5.27 5.27 0 00.509-2.32c0-1.453-.504-2.619-1.511-3.498-1.008-.879-2.625-1.318-4.852-1.318-3.492 0-6.773 1.101-9.844 3.304-.914.68-1.488 1.02-1.722 1.02-.399 0-.598-.223-.598-.668 0-.586.34-1.301 1.02-2.145 1.265-1.617 2.707-2.941 4.324-3.972 1.617-1.032 3.093-1.723 4.429-2.074a15.548 15.548 0 013.973-.528c1.688 0 3.211.176 4.57.528 1.36.351 2.567.896 3.621 1.634 1.055.739 1.875 1.746 2.461 3.024.586 1.277.879 2.771.879 4.482 0 3.656-1.74 6.475-5.22 8.455-3.481 1.981-8.233 2.971-14.256 2.971-1.688 0-3.598-.094-5.731-.281-1.054-.071-1.582-.586-1.582-1.547 0-2.602.375-4.553 1.125-5.854.75-1.301 1.723-2.302 2.918-3.006 1.172-.679 2.063-1.019 2.672-1.019.563 0 .844.351.844 1.055 0 .281-.117.966-.352 2.056-.234 1.09-.351 1.822-.351 2.197zm-6.575 9.809c0-1.219.563-1.828 1.688-1.828h3.023c.61 0 1.038.117 1.284.352.246.234.439.75.58 1.546.914 5.696 4.031 8.543 9.351 8.543 1.336 0 2.59-.164 3.762-.492 1.172-.328 2.08-.691 2.725-1.09.644-.398 1.242-.761 1.793-1.09.55-.328.955-.492 1.212-.492.54 0 .809.293.809.879 0 .492-.269 1.125-.809 1.899-.539.773-1.306 1.576-2.302 2.408-.996.832-2.367 1.547-4.114 2.144-1.746.598-3.638.897-5.677.897-4.219 0-7.494-1.272-9.826-3.815-2.332-2.543-3.499-5.83-3.499-9.861z" fill="url(#_Linear6)"/></g><defs><linearGradient id="_Linear1" x1="0" y1="0" x2="1" y2="0" gradientUnits="userSpaceOnUse" gradientTransform="matrix(26.9297 0 0 38.1797 0 36)"><stop offset="0" stop-color="#c32727"/><stop offset="1" stop-color="#dfadad"/></linearGradient><linearGradient id="_Linear2" x1="0" y1="0" x2="1" y2="0" gradientUnits="userSpaceOnUse" gradientTransform="matrix(28.4062 0 0 38.1797 33.434 36)"><stop offset="0" stop-color="#f95f87"/><stop offset="1" stop-color="#fbcbae"/></linearGradient><linearGradient id="_Linear3" x1="0" y1="0" x2="1" y2="0" gradientUnits="userSpaceOnUse" gradientTransform="matrix(26.1562 0 0 45 67.219 32.59)"><stop offset="0" stop-color="#002c8b"/><stop offset="1" stop-color="#e1e5ea"/></linearGradient><linearGradient id="_Linear4" x1="0" y1="0" x2="1" y2="0" gradientUnits="userSpaceOnUse" gradientTransform="matrix(26.1562 0 0 45 95.484 32.59)"><stop offset="0" stop-color="#008cff"/><stop offset="1" stop-color="#b0d8e2"/></linearGradient><linearGradient id="_Linear5" x1="0" y1="0" x2="1" y2="0" gradientUnits="userSpaceOnUse" gradientTransform="matrix(6.32812 0 0 54.3516 127.02 27.176)"><stop offset="0" stop-color="#ff8600"/><stop offset="1" stop-color="#d3e8ea"/></linearGradient><linearGradient id="_Linear6" x1="0" y1="0" x2="1" y2="0" gradientUnits="userSpaceOnUse" gradientTransform="matrix(26.7891 0 0 38.1797 140.906 36)"><stop offset="0" stop-color="#8d4dbf"/><stop offset="1" stop-color="#eeeeb9"/></linearGradient></defs>
</svg>